<?xml version="1.0" encoding="utf-8"?>
<!-- Generator: Adobe Illustrator 26.3.1, SVG Export Plug-In . SVG Version: 6.00 Build 0)  -->
<svg version="1.1" id="Laag_1" xmlns="http://www.w3.org/2000/svg" xmlns:xlink="http://www.w3.org/1999/xlink" x="0px" y="0px"
	 viewBox="0 0 209 50" style="enable-background:new 0 0 209 50;" xml:space="preserve">
<style type="text/css">
	.st0{fill:#FFFFFF;}
	.st1{fill:url(#SVGID_1_);}
	.st2{fill:url(#SVGID_00000155828293170017235790000001963933594705898165_);}
	.st3{fill:url(#SVGID_00000147191592503130543700000015365810916149300918_);}
	.st4{fill:url(#SVGID_00000183238624308045441160000001759583081191123599_);}
	.st5{fill:url(#SVGID_00000022533110161396434050000009763102617069810856_);}
	.st6{fill:url(#SVGID_00000094600697430994627940000000746421337788158607_);}
</style>
<g>
	<path class="st0" d="M76.6,22.6c1.7,0,3.1,0.6,4,1.8c0.9,1.2,1.3,2.9,1.3,5.1v2.9c0,1.9-0.4,3.5-1.3,4.7c-0.9,1.2-2.2,1.9-4.1,1.9
		h-15c-0.3,0-1-0.1-1-1.1v-2.7c0-1,0.7-1.1,1-1.1h14.2c0.6,0,0.8-0.2,0.9-0.4c0.2-0.3,0.3-0.8,0.3-1.4v-2.9c0-1.6-0.7-1.8-1.2-1.8
		h-10c-1.4,0-2.9-0.2-4-1.6c-0.8-1.2-1.3-3-1.3-5.3v-2.5c0-1.9,0.4-3.5,1.3-4.7c0.9-1.2,2.2-1.8,4-1.8h14.3c0.3,0,0.9,0.1,0.9,1.1
		v2.7c0,1-0.7,1.1-0.9,1.1H66.7c-0.6,0-0.8,0.2-0.9,0.4c-0.2,0.3-0.3,0.8-0.3,1.4v2.5c0,1.6,0.6,1.8,1.1,1.8H76.6z M112.4,14
		c0.7,0.8,1.1,1.9,1.4,3.3c0.3,1.3,0.4,2.9,0.4,4.7v6.6c0,1.9-0.2,3.5-0.4,4.8c-0.3,1.3-0.8,2.4-1.4,3.3c-0.7,0.8-1.5,1.5-2.6,1.8
		c-1,0.4-2.3,0.6-3.8,0.6H98c-1.5,0-2.7-0.2-3.7-0.6c-1.1-0.4-1.9-1-2.6-1.9c-0.6-0.8-1.1-1.9-1.4-3.3c-0.3-1.3-0.4-2.9-0.4-4.8V22
		c0-1.9,0.1-3.4,0.4-4.7c0.3-1.3,0.8-2.4,1.4-3.3c0.7-0.8,1.5-1.5,2.6-1.9c1-0.4,2.3-0.6,3.7-0.6h8.1c1.5,0,2.7,0.2,3.8,0.6
		C110.9,12.5,111.8,13.1,112.4,14z M109.3,21.4c0-1,0-1.8-0.2-2.5c-0.1-0.6-0.3-1.1-0.6-1.5c-0.2-0.3-0.6-0.6-1-0.7
		c-0.4-0.1-1-0.2-1.7-0.2h-7.8c-0.7,0-1.3,0.1-1.7,0.2c-0.4,0.2-0.8,0.4-1,0.7c-0.3,0.4-0.4,0.9-0.6,1.5c-0.1,0.7-0.2,1.5-0.2,2.5
		v7.8c0,1,0.1,1.8,0.2,2.5c0.1,0.6,0.3,1.1,0.6,1.5c0.2,0.4,0.6,0.6,1,0.7c0.4,0.2,1,0.2,1.7,0.2h7.8c0.7,0,1.3-0.1,1.7-0.2
		c0.4-0.1,0.8-0.4,1-0.7c0.3-0.3,0.5-0.9,0.6-1.5c0.1-0.7,0.2-1.5,0.2-2.5V21.4z M141.4,34c0.3,0,0.9,0.1,0.9,1.2v2.6
		c0,1-0.6,1.2-0.9,1.2h-11c-1.5,0-2.7-0.2-3.7-0.6c-1.1-0.4-1.9-1-2.6-1.9c-0.7-0.8-1.1-1.9-1.4-3.3c-0.3-1.3-0.5-2.9-0.5-4.8V12.7
		c0-1.1,0.7-1.2,1-1.2h3.1c0.3,0,0.9,0.1,0.9,1.2v16.4c0,1,0,1.8,0.2,2.5c0.1,0.6,0.3,1.1,0.6,1.5c0.2,0.4,0.6,0.6,1,0.7
		c0.5,0.2,1,0.2,1.7,0.2H141.4z M168.1,14.6l9.4,23.1c0.1,0.3,0.2,0.6,0.1,0.8c-0.1,0.2-0.2,0.5-0.7,0.5h-3.6c-0.5,0-0.8-0.3-1-0.7
		l-8.2-20.6l0-0.1h-0.1c0,0,0,0-0.1,0.1l-4.3,10.8h4.1c0.4,0,0.8,0.3,1,0.7l1.2,3c0.1,0.3,0.1,0.7-0.1,1c-0.2,0.3-0.5,0.5-0.9,0.5
		h-7.3l-1.9,4.8c-0.2,0.4-0.5,0.7-0.9,0.7h-3.7c-0.5,0-0.7-0.3-0.7-0.5c-0.1-0.2,0-0.5,0.1-0.8l9.3-23.1c0.5-1.2,1-2,1.5-2.4
		c0.1-0.1,0.3-0.2,0.5-0.3c0.7-0.5,1.5-0.7,2.3-0.7c1.8,0,3.4,1.2,4,3L168.1,14.6z M208.9,37.5c0.1,0.2,0.2,0.5,0.1,0.8
		c-0.1,0.4-0.4,0.7-0.8,0.7h-3.7c-0.3,0-0.5-0.1-0.7-0.2c-0.1-0.1-0.2-0.3-0.4-0.5l-6-10.7h-7v10.2c0,1-0.6,1.2-0.9,1.2h-3
		c-0.3,0-1-0.1-1-1.2v-14c0-1,0.7-1.1,1-1.1H201c0.9,0,1.4-0.2,1.8-0.7c0.4-0.5,0.5-1.3,0.5-2.4s-0.2-1.9-0.5-2.4
		c-0.3-0.5-0.9-0.7-1.8-0.7h-14.5c-0.3,0-1-0.1-1-1.1v-2.6c0-1.1,0.7-1.2,1-1.2h15.3c2.3,0,3.9,0.7,4.9,2.1c0.9,1.4,1.4,3.3,1.5,5.8
		v0.2c-0.1,2.6-0.6,4.5-1.5,5.8c-0.8,1.1-2.1,1.8-3.7,2L208.9,37.5z"/>
	
		<linearGradient id="SVGID_1_" gradientUnits="userSpaceOnUse" x1="-41.8006" y1="-336.0627" x2="-28.8913" y2="-336.0627" gradientTransform="matrix(1.4058 0 0 -0.5704 72.515 -145.2849)">
		<stop  offset="0" style="stop-color:#EF4136"/>
		<stop  offset="1" style="stop-color:#FBB040"/>
	</linearGradient>
	<path class="st1" d="M19.1,49.2c0.4,0.2,0.7,0.3,1.1,0.4l0.2,0.1c0.4,0.1,0.7,0.2,1.1,0.3h0.2c0.8,0.1,1.6,0.1,2.3,0h0.2
		c0.4-0.1,0.7-0.1,1.1-0.2l0.2-0.1c0.4-0.1,0.7-0.3,1.1-0.4l0.2-0.1c0.3-0.2,0.7-0.4,1-0.6l0.1,0c0.3-0.2,0.7-0.5,1-0.7l0.2-0.2
		c0.3-0.3,0.6-0.5,0.9-0.8l0.2-0.2c0.3-0.3,0.6-0.6,0.9-1l0.1-0.2c0.3-0.3,0.5-0.7,0.8-1l0.1-0.1c-2.9-0.2-5.7-0.7-8.5-1.6
		c-0.4-0.1-0.8-0.1-1.2,0c-2.8,0.9-5.6,1.4-8.5,1.6C15.1,46.5,16.9,48.1,19.1,49.2z"/>
	
		<linearGradient id="SVGID_00000022538073501581088730000014711068461990524072_" gradientUnits="userSpaceOnUse" x1="8.8184" y1="-87.7776" x2="28.0802" y2="-87.7776" gradientTransform="matrix(0.9852 0 0 -0.8139 -8.6759 -36.6892)">
		<stop  offset="0" style="stop-color:#EF4136"/>
		<stop  offset="1" style="stop-color:#FBB040"/>
	</linearGradient>
	<path style="fill:url(#SVGID_00000022538073501581088730000014711068461990524072_);" d="M0,34c0,0.4,0.1,0.8,0.2,1.1l0,0.2
		c0.1,0.4,0.2,0.7,0.3,1.1l0.1,0.2c0.3,0.7,0.7,1.4,1.2,2l0.1,0.1c0.2,0.3,0.5,0.6,0.8,0.8l0.2,0.2c0.3,0.2,0.6,0.5,0.9,0.7l0.1,0.1
		c0.3,0.2,0.6,0.4,0.9,0.6l0.1,0.1c0.4,0.2,0.7,0.3,1.1,0.5l0.2,0.1C6.6,41.9,7,42,7.4,42.1l0.3,0.1c0.4,0.1,0.8,0.2,1.2,0.3h0.2
		c0.4,0.1,0.8,0.1,1.2,0.2h0.2c-0.3-0.6-0.6-1.3-0.9-2c-0.2-0.4-0.1-0.8,0.2-1c0.3-0.3,0.7-0.3,1-0.1c0.2,0.1,0.3,0.2,0.4,0.4
		c0.2,0.6,0.5,1.1,0.8,1.6c0.4,0.7,1.1,1.1,1.9,1.1c1.6-0.1,3.1-0.3,4.7-0.7c0.2-0.1,0.3-0.2,0.4-0.4c0-0.2-0.1-0.4-0.3-0.5
		c-1.3-0.6-2.6-1.3-3.9-2c-5.3-2.9-9.9-7.1-13.3-12.1L1.4,27c-0.2,0.4-0.4,0.9-0.5,1.3v0.1c-0.2,0.4-0.3,0.9-0.4,1.3l-0.1,0.2
		c-0.1,0.4-0.2,0.8-0.3,1.2v0.2c-0.1,0.4-0.1,0.8-0.1,1.2v0.1c0,0.4,0,0.8,0,1.2C0,33.9,0,33.9,0,34z"/>
	
		<linearGradient id="SVGID_00000149352834615437914350000011531490306301114294_" gradientUnits="userSpaceOnUse" x1="10.6595" y1="-77.9627" x2="54.1494" y2="-77.9627" gradientTransform="matrix(0.9892 0 0 -0.8106 -7.8913 -38.179)">
		<stop  offset="0" style="stop-color:#EF4136"/>
		<stop  offset="1" style="stop-color:#FBB040"/>
	</linearGradient>
	<path style="fill:url(#SVGID_00000149352834615437914350000011531490306301114294_);" d="M22.9,9.4h-0.1c-2.5,0.9-4.9,2-7.2,3.3
		c-5.2,2.9-9.6,6.9-12.8,11.8c-0.2,0.3-0.2,0.8,0,1.1C4,27.5,5.5,29.3,7.1,31c-0.3-2-0.4-3.9-0.4-5.9v-1.7c0-0.2,0.1-0.4,0.2-0.6
		c0.3-0.3,0.6-0.3,1-0.2c0.3,0.1,0.6,0.5,0.6,0.8v1.6c0,2.4,0.2,4.8,0.6,7.2c0.1,0.4,0.3,0.8,0.6,1c1.9,1.5,3.9,2.9,6,4.1
		c4.9,2.9,10.4,4.7,16.1,5.2c0.8,0,1.5-0.4,1.8-1.1c0.7-1.5,1.3-3,1.8-4.6c0.1-0.2,0-0.4-0.2-0.5c-0.2-0.1-0.4-0.1-0.5,0
		c-1.2,0.9-2.5,1.7-3.8,2.5c-0.4,0.2-0.8,0.4-1.2,0.7c-0.2,0.1-0.4,0.1-0.7,0.1c-0.3-0.1-0.6-0.4-0.6-0.8c0-0.4,0.1-0.7,0.5-0.9
		c0.4-0.2,0.8-0.4,1.2-0.7c2.1-1.2,4.1-2.6,6-4.2c0.3-0.2,0.5-0.5,0.5-0.9c0.4-2.4,0.6-4.9,0.6-7.3v-1.9c0-0.3,0.2-0.6,0.5-0.8
		s0.7-0.1,0.9,0.1c0.2,0.2,0.3,0.4,0.3,0.6c0,0.7,0,1.3,0,2c0.1,6.1-1.2,12.1-3.8,17.6h0.2c0.4,0,0.8-0.1,1.2-0.2h0.2
		c0.4-0.1,0.8-0.2,1.3-0.3l0.3-0.1c0.4-0.1,0.8-0.2,1.1-0.4l0.2-0.1c0.4-0.2,0.7-0.3,1.1-0.5l0.1-0.1c0.3-0.2,0.7-0.4,1-0.6l0.1-0.1
		c0.3-0.2,0.6-0.5,0.9-0.7l0.2-0.2c0.3-0.3,0.5-0.5,0.8-0.8l0.1-0.1c0.5-0.6,0.9-1.3,1.2-2l0.1-0.2c0.1-0.3,0.2-0.7,0.3-1.1l0-0.2
		c0.1-0.4,0.1-0.7,0.2-1.1v-0.2c0-0.4,0-0.8,0-1.2v-0.1c0-0.4,0-0.9-0.1-1.3v-0.2c-0.1-0.4-0.2-0.8-0.3-1.2l-0.1-0.2
		c-0.1-0.4-0.3-0.9-0.4-1.3v-0.1c-0.2-0.4-0.3-0.8-0.5-1.3l-0.1-0.1c-0.6,0.9-1.2,1.8-1.9,2.7c-0.2,0.2-0.5,0.3-0.8,0.2
		c-0.3-0.1-0.5-0.3-0.5-0.6v-0.6c0-0.2,0-0.3,0.2-0.5c1.4-1.8,1.4-4.4-0.1-6.2C38,18.2,34.2,15,30,12.6c-1.1-0.6-2.3-1.2-3.4-1.8
		c0.8-0.3,1.6-0.5,2.5-0.8c0.6,0.3,1.2,0.6,1.8,1c1.7,1,3.3,2.1,4.9,3.3c-0.6-2.1-1.3-4.1-2.3-6c-0.3-0.6-0.9-0.9-1.5-0.9
		c-3.1,0.2-6.1,0.8-9,1.9L22.9,9.4z M15.7,17.4l2.9,1c0.1,0,0.2,0.2,0.2,0.3c0,0.1,0,0.3-0.1,0.4L16.8,21c-0.1,0.1-0.2,0.1-0.4,0.1
		c-0.1,0-0.2-0.1-0.3-0.2l-1-2.9c-0.1-0.1,0-0.3,0.1-0.4C15.4,17.4,15.5,17.3,15.7,17.4z M12.3,25.4c-0.1-0.1-0.2-0.2-0.2-0.3
		s0.1-0.3,0.2-0.3l2.8-1.4c0.1-0.1,0.3-0.1,0.4,0c0.1,0.1,0.2,0.2,0.2,0.3v2.7c0,0.1-0.1,0.3-0.2,0.3c-0.1,0.1-0.3,0.1-0.4,0
		L12.3,25.4z M18.6,31.7l-2.9,1c-0.1,0-0.3,0-0.4-0.1s-0.1-0.2-0.1-0.4l1-2.9c0-0.1,0.1-0.2,0.3-0.2c0.1,0,0.3,0,0.4,0.1l1.9,1.9
		c0.1,0.1,0.1,0.2,0.1,0.4C18.8,31.6,18.7,31.7,18.6,31.7z M24.6,32.8l-1.4,2.8c-0.1,0.1-0.2,0.2-0.3,0.2c-0.1,0-0.3-0.1-0.3-0.2
		l-1.4-2.8c-0.1-0.1-0.1-0.3,0-0.4s0.2-0.2,0.3-0.2h2.7c0.1,0,0.3,0.1,0.3,0.2S24.6,32.7,24.6,32.8L24.6,32.8z M30,32.8l-2.9-1
		c-0.1,0-0.2-0.1-0.2-0.3c0-0.1,0-0.3,0.1-0.4l1.9-1.9c0.1-0.1,0.2-0.1,0.4-0.1c0.1,0,0.2,0.1,0.3,0.2l1,2.9c0.1,0.1,0,0.3-0.1,0.4
		C30.3,32.8,30.1,32.8,30,32.8L30,32.8z M33.3,24.8c0.1,0.1,0.2,0.2,0.2,0.3c0,0.1-0.1,0.3-0.2,0.3l-2.8,1.4c-0.1,0.1-0.3,0.1-0.4,0
		S30,26.6,30,26.5v-2.8c0-0.1,0.1-0.3,0.2-0.3c0.1-0.1,0.3-0.1,0.4,0L33.3,24.8z M27.1,18.4l2.9-1c0.1,0,0.3,0,0.4,0.1
		c0.1,0.1,0.1,0.3,0.1,0.4l-1,2.9c0,0.1-0.1,0.2-0.3,0.2c-0.1,0-0.3,0-0.4-0.1L26.9,19c-0.1-0.1-0.1-0.2-0.1-0.4
		C26.9,18.5,26.9,18.4,27.1,18.4L27.1,18.4z M28.2,25.1c0,3-2.4,5.4-5.4,5.4c-3,0-5.4-2.4-5.4-5.4c0-3,2.4-5.4,5.4-5.4
		C25.8,19.7,28.2,22.1,28.2,25.1z M23.2,14.6l1.4,2.8c0.1,0.1,0.1,0.3,0,0.4s-0.2,0.2-0.3,0.2h-2.7c-0.1,0-0.3-0.1-0.3-0.2
		s-0.1-0.3,0-0.4l1.4-2.8c0.1-0.1,0.2-0.2,0.3-0.2C23,14.4,23.1,14.4,23.2,14.6z"/>
	
		<linearGradient id="SVGID_00000054975108011002320740000002940990584603475627_" gradientUnits="userSpaceOnUse" x1="77.4483" y1="65.4553" x2="91.8418" y2="65.4553" gradientTransform="matrix(0.7351 0 0 -1.0908 -56.9332 86.7536)">
		<stop  offset="0" style="stop-color:#EF4136"/>
		<stop  offset="1" style="stop-color:#FBB040"/>
	</linearGradient>
	<path style="fill:url(#SVGID_00000054975108011002320740000002940990584603475627_);" d="M0.1,18.8V19c0.1,0.4,0.2,0.8,0.3,1.2
		l0.1,0.2c0.1,0.4,0.2,0.9,0.4,1.3v0.1c0.2,0.4,0.3,0.8,0.5,1.3l0.1,0.1c1.7-2.6,3.8-4.9,6.2-7c0.6-3,1.6-6,3-8.7
		c-2.9,0.1-5.6,1.2-7.8,3l-0.1,0.1c-0.3,0.3-0.5,0.5-0.8,0.8l-0.1,0.1c-0.5,0.6-0.9,1.3-1.2,2l-0.1,0.2c-0.1,0.3-0.2,0.7-0.3,1.1
		l0,0.2c-0.1,0.4-0.1,0.7-0.2,1.1v0.1c0,0.4,0,0.8,0,1.2v0.1C0,17.9,0.1,18.4,0.1,18.8z"/>
	
		<linearGradient id="SVGID_00000036251848029173797890000013931445666843918748_" gradientUnits="userSpaceOnUse" x1="-5.0688" y1="-117.4072" x2="14.7934" y2="-117.4072" gradientTransform="matrix(1.1104 0 0 -0.7221 15.4916 -77.6135)">
		<stop  offset="0" style="stop-color:#EF4136"/>
		<stop  offset="1" style="stop-color:#FBB040"/>
	</linearGradient>
	<path style="fill:url(#SVGID_00000036251848029173797890000013931445666843918748_);" d="M14.8,11.1c1.3-0.7,2.6-1.4,3.9-2
		c0.2-0.1,0.2-0.3,0.2-0.5c0-0.2-0.2-0.4-0.3-0.4c-0.7-0.2-1.5-0.3-2.2-0.4c-0.3-0.1-0.6-0.3-0.7-0.5s-0.1-0.6,0.1-0.9
		C16,6.1,16.3,6,16.7,6c1.9,0.3,3.8,0.7,5.7,1.3c0.3,0.1,0.7,0.1,1,0c2.8-0.9,5.7-1.5,8.6-1.6l-0.1-0.1c-0.3-0.4-0.6-0.8-0.9-1.1
		l-0.1-0.1c-0.3-0.3-0.6-0.7-0.9-1l-0.2-0.2C29.6,3,29.3,2.7,29,2.4l-0.2-0.1c-0.3-0.3-0.7-0.5-1-0.8h-0.1c-0.3-0.2-0.7-0.4-1-0.6
		l-0.1-0.1c-0.3-0.2-0.7-0.3-1.1-0.4l-0.2-0.1c-0.4-0.1-0.7-0.2-1.1-0.3H24c-0.7-0.1-1.4-0.1-2.1,0h-0.2c-0.3,0-0.5,0.1-0.8,0.2
		h-0.1c-0.3,0.1-0.6,0.2-0.9,0.3l-0.2,0.1c-0.2,0.1-0.5,0.2-0.7,0.3L18.7,1c-0.3,0.2-0.6,0.3-0.9,0.5l-0.1,0.1
		c-0.2,0.2-0.5,0.3-0.7,0.5l-0.2,0.1c-0.6,0.5-1.1,1-1.6,1.6L15,4.1c-0.5,0.6-1,1.3-1.5,2l-0.1,0.1c-1.6,2.5-2.8,5.3-3.6,8.2
		C11.4,13.2,13.1,12.1,14.8,11.1z"/>
	
		<linearGradient id="SVGID_00000088840604817340971270000003073340721360201355_" gradientUnits="userSpaceOnUse" x1="124.9655" y1="65.1997" x2="139.327" y2="65.1997" gradientTransform="matrix(0.7356 0 0 -1.09 -56.8398 86.4339)">
		<stop  offset="0" style="stop-color:#EF4136"/>
		<stop  offset="1" style="stop-color:#FBB040"/>
	</linearGradient>
	<path style="fill:url(#SVGID_00000088840604817340971270000003073340721360201355_);" d="M38.3,16.5c2.2,2,4.2,4.2,5.8,6.7
		c0.4-0.9,0.8-1.9,1-2.8v-0.1c0.1-0.4,0.2-0.9,0.3-1.3v-0.2c0.1-0.4,0.1-0.9,0.1-1.3c0-0.4,0-0.8,0-1.2v-0.1c0-0.4-0.1-0.8-0.2-1.1
		v-0.2c-0.1-0.4-0.2-0.7-0.3-1.1l-0.1-0.2c-0.3-0.7-0.7-1.4-1.2-2l-0.1-0.1c-0.2-0.3-0.5-0.6-0.8-0.8l-0.2-0.2
		c-0.3-0.3-0.6-0.5-0.9-0.7l-0.1-0.1c-0.3-0.2-0.6-0.4-1-0.6L40.7,9c-0.4-0.2-0.7-0.3-1.1-0.5l-0.2-0.1C39,8.3,38.6,8.2,38.2,8L38,8
		c-0.4-0.1-0.8-0.2-1.3-0.3h-0.2c-0.4-0.1-0.8-0.1-1.2-0.2h-0.2c1.3,2.7,2.3,5.5,2.9,8.4C38,16.1,38.2,16.3,38.3,16.5z"/>
</g>
</svg>
