<?xml version="1.0" encoding="UTF-8"?>
<svg xmlns="http://www.w3.org/2000/svg" xmlns:xlink="http://www.w3.org/1999/xlink" width="209px" height="50px" viewBox="0 0 209 50" version="1.1">
<defs>
<linearGradient id="linear0" gradientUnits="userSpaceOnUse" x1="13.915" y1="81.21" x2="26.825" y2="81.21" gradientTransform="matrix(1.405841,0,0,0.570368,-5.812324,-3.60625)">
<stop offset="0" style="stop-color:rgb(93.72549%,25.490196%,21.176471%);stop-opacity:1;"/>
<stop offset="1" style="stop-color:rgb(98.431373%,69.019608%,25.098039%);stop-opacity:1;"/>
</linearGradient>
<linearGradient id="linear1" gradientUnits="userSpaceOnUse" x1="5.912" y1="37.5" x2="25.174" y2="37.5" gradientTransform="matrix(0.985163,0,0,0.813916,-5.812324,-3.60625)">
<stop offset="0" style="stop-color:rgb(93.72549%,25.490196%,21.176471%);stop-opacity:1;"/>
<stop offset="1" style="stop-color:rgb(98.431373%,69.019608%,25.098039%);stop-opacity:1;"/>
</linearGradient>
<linearGradient id="linear2" gradientUnits="userSpaceOnUse" x1="8.557" y1="13.566" x2="52.049" y2="13.566" gradientTransform="matrix(0.989228,0,0,0.810575,-5.812324,-3.60625)">
<stop offset="0" style="stop-color:rgb(93.72549%,25.490196%,21.176471%);stop-opacity:1;"/>
<stop offset="1" style="stop-color:rgb(98.431373%,69.019608%,25.098039%);stop-opacity:1;"/>
</linearGradient>
<linearGradient id="linear3" gradientUnits="userSpaceOnUse" x1="7.907" y1="10.19" x2="22.3" y2="10.19" gradientTransform="matrix(0.735125,0,0,1.090762,-5.812324,-3.60625)">
<stop offset="0" style="stop-color:rgb(93.72549%,25.490196%,21.176471%);stop-opacity:1;"/>
<stop offset="1" style="stop-color:rgb(98.431373%,69.019608%,25.098039%);stop-opacity:1;"/>
</linearGradient>
<linearGradient id="linear4" gradientUnits="userSpaceOnUse" x1="14.119" y1="4.994" x2="33.978" y2="4.994" gradientTransform="matrix(1.110383,0,0,0.722135,-5.812324,-3.60625)">
<stop offset="0" style="stop-color:rgb(93.72549%,25.490196%,21.176471%);stop-opacity:1;"/>
<stop offset="1" style="stop-color:rgb(98.431373%,69.019608%,25.098039%);stop-opacity:1;"/>
</linearGradient>
<linearGradient id="linear5" gradientUnits="userSpaceOnUse" x1="55.598" y1="10.221" x2="69.96" y2="10.221" gradientTransform="matrix(0.735609,0,0,1.090045,-5.812324,-3.60625)">
<stop offset="0" style="stop-color:rgb(93.72549%,25.490196%,21.176471%);stop-opacity:1;"/>
<stop offset="1" style="stop-color:rgb(98.431373%,69.019608%,25.098039%);stop-opacity:1;"/>
</linearGradient>
</defs>
<g id="surface1">
<path style=" stroke:none;fill-rule:nonzero;fill:rgb(0%,0%,0%);fill-opacity:1;" d="M 76.605469 22.589844 C 78.335938 22.589844 79.667969 23.222656 80.566406 24.417969 C 81.429688 25.617188 81.863281 27.3125 81.863281 29.476562 L 81.863281 32.40625 C 81.863281 34.335938 81.429688 35.898438 80.597656 37.097656 C 79.734375 38.328125 78.371094 38.960938 76.539062 38.960938 L 61.535156 38.960938 C 61.238281 38.960938 60.570312 38.863281 60.570312 37.828125 L 60.570312 35.167969 C 60.570312 34.136719 61.238281 34.035156 61.535156 34.035156 L 75.742188 34.035156 C 76.308594 34.035156 76.507812 33.804688 76.640625 33.605469 C 76.839844 33.269531 76.9375 32.804688 76.9375 32.207031 L 76.9375 29.34375 C 76.9375 27.714844 76.273438 27.515625 75.773438 27.515625 L 65.792969 27.515625 C 64.398438 27.515625 62.867188 27.3125 61.835938 25.949219 C 61.003906 24.785156 60.539062 22.921875 60.539062 20.625 L 60.539062 18.097656 C 60.539062 16.167969 60.96875 14.570312 61.835938 13.371094 C 62.699219 12.140625 64.03125 11.539062 65.859375 11.539062 L 80.199219 11.539062 C 80.464844 11.539062 81.132812 11.640625 81.132812 12.671875 L 81.132812 15.335938 C 81.132812 16.367188 80.464844 16.464844 80.199219 16.464844 L 66.660156 16.464844 C 66.09375 16.464844 65.894531 16.699219 65.761719 16.898438 C 65.59375 17.230469 65.496094 17.695312 65.496094 18.296875 L 65.496094 20.757812 C 65.496094 22.390625 66.128906 22.589844 66.625 22.589844 Z M 112.441406 13.96875 C 113.109375 14.800781 113.574219 15.898438 113.875 17.230469 C 114.140625 18.527344 114.304688 20.125 114.304688 21.957031 L 114.304688 28.546875 C 114.304688 30.410156 114.140625 32.007812 113.875 33.304688 C 113.574219 34.636719 113.109375 35.734375 112.441406 36.597656 C 111.777344 37.429688 110.914062 38.0625 109.847656 38.429688 C 108.816406 38.796875 107.550781 38.996094 106.089844 38.996094 L 97.972656 38.996094 C 96.507812 38.996094 95.242188 38.796875 94.246094 38.429688 C 93.179688 38.0625 92.316406 37.429688 91.652344 36.566406 C 91.019531 35.734375 90.519531 34.636719 90.21875 33.304688 C 89.921875 32.007812 89.789062 30.410156 89.789062 28.546875 L 89.789062 21.957031 C 89.789062 20.09375 89.921875 18.527344 90.21875 17.230469 C 90.519531 15.898438 91.019531 14.800781 91.652344 13.96875 C 92.316406 13.136719 93.179688 12.503906 94.246094 12.105469 C 95.277344 11.742188 96.507812 11.539062 97.972656 11.539062 L 106.089844 11.539062 C 107.550781 11.539062 108.816406 11.742188 109.847656 12.105469 C 110.914062 12.503906 111.777344 13.136719 112.441406 13.96875 Z M 109.347656 21.390625 C 109.347656 20.425781 109.316406 19.59375 109.183594 18.929688 C 109.082031 18.296875 108.882812 17.796875 108.617188 17.429688 C 108.382812 17.097656 108.050781 16.863281 107.617188 16.699219 C 107.1875 16.566406 106.621094 16.464844 105.921875 16.464844 L 98.136719 16.464844 C 97.4375 16.464844 96.875 16.566406 96.441406 16.699219 C 96.007812 16.863281 95.675781 17.097656 95.441406 17.429688 C 95.175781 17.796875 95.011719 18.296875 94.878906 18.929688 C 94.777344 19.59375 94.710938 20.425781 94.710938 21.390625 L 94.710938 29.144531 C 94.710938 30.109375 94.777344 30.941406 94.878906 31.605469 C 95.011719 32.207031 95.175781 32.738281 95.441406 33.070312 C 95.675781 33.4375 96.007812 33.671875 96.441406 33.804688 C 96.875 33.96875 97.4375 34.035156 98.136719 34.035156 L 105.921875 34.035156 C 106.621094 34.035156 107.1875 33.96875 107.617188 33.804688 C 108.050781 33.671875 108.382812 33.4375 108.617188 33.070312 C 108.882812 32.738281 109.082031 32.207031 109.183594 31.605469 C 109.316406 30.941406 109.347656 30.109375 109.347656 29.144531 Z M 141.425781 34.035156 C 141.726562 34.035156 142.359375 34.167969 142.359375 35.199219 L 142.359375 37.828125 C 142.359375 38.863281 141.726562 38.996094 141.425781 38.996094 L 130.449219 38.996094 C 128.984375 38.996094 127.71875 38.796875 126.722656 38.429688 C 125.65625 38.0625 124.792969 37.429688 124.128906 36.566406 C 123.460938 35.734375 122.996094 34.636719 122.695312 33.304688 C 122.398438 32.007812 122.230469 30.410156 122.230469 28.546875 L 122.230469 12.707031 C 122.230469 11.640625 122.898438 11.539062 123.195312 11.539062 L 126.257812 11.539062 C 126.523438 11.539062 127.1875 11.640625 127.1875 12.707031 L 127.1875 29.109375 C 127.1875 30.109375 127.222656 30.941406 127.355469 31.605469 C 127.453125 32.207031 127.652344 32.707031 127.917969 33.070312 C 128.152344 33.4375 128.484375 33.671875 128.882812 33.804688 C 129.351562 33.96875 129.914062 34.035156 130.613281 34.035156 Z M 168.113281 14.636719 L 177.464844 37.695312 C 177.597656 37.996094 177.628906 38.296875 177.5625 38.496094 C 177.496094 38.660156 177.363281 38.996094 176.832031 38.996094 L 173.269531 38.996094 C 172.804688 38.996094 172.472656 38.726562 172.304688 38.261719 L 164.054688 17.664062 L 164.023438 17.597656 L 163.890625 17.597656 C 163.890625 17.597656 163.855469 17.628906 163.824219 17.695312 L 159.566406 28.480469 L 163.691406 28.480469 C 164.121094 28.480469 164.488281 28.746094 164.65625 29.144531 L 165.851562 32.105469 C 165.953125 32.4375 165.917969 32.804688 165.71875 33.070312 C 165.554688 33.371094 165.21875 33.539062 164.855469 33.539062 L 157.570312 33.539062 L 155.671875 38.296875 C 155.507812 38.726562 155.171875 38.996094 154.742188 38.996094 L 151.082031 38.996094 C 150.550781 38.996094 150.382812 38.695312 150.351562 38.496094 C 150.285156 38.296875 150.316406 37.996094 150.417969 37.695312 L 159.699219 14.636719 C 160.164062 13.4375 160.664062 12.640625 161.160156 12.207031 C 161.292969 12.105469 161.460938 11.972656 161.660156 11.875 C 162.328125 11.40625 163.125 11.175781 163.957031 11.175781 C 165.785156 11.175781 167.382812 12.40625 167.914062 14.136719 Z M 208.875 37.53125 C 209.007812 37.730469 209.042969 37.996094 209.007812 38.328125 C 208.941406 38.726562 208.640625 38.996094 208.242188 38.996094 L 204.582031 38.996094 C 204.285156 38.996094 204.050781 38.929688 203.886719 38.796875 C 203.753906 38.695312 203.652344 38.527344 203.519531 38.328125 L 197.496094 27.648438 L 190.476562 27.648438 L 190.476562 37.828125 C 190.476562 38.863281 189.847656 38.996094 189.546875 38.996094 L 186.519531 38.996094 C 186.21875 38.996094 185.554688 38.863281 185.554688 37.828125 L 185.554688 23.851562 C 185.554688 22.820312 186.21875 22.722656 186.519531 22.722656 L 200.992188 22.722656 C 201.855469 22.722656 202.421875 22.488281 202.753906 21.988281 C 203.121094 21.492188 203.285156 20.691406 203.285156 19.59375 C 203.285156 18.496094 203.121094 17.695312 202.753906 17.199219 C 202.421875 16.699219 201.855469 16.464844 200.992188 16.464844 L 186.519531 16.464844 C 186.21875 16.464844 185.554688 16.367188 185.554688 15.335938 L 185.554688 12.707031 C 185.554688 11.640625 186.21875 11.539062 186.519531 11.539062 L 201.855469 11.539062 C 204.117188 11.539062 205.78125 12.238281 206.777344 13.671875 C 207.675781 15.035156 208.175781 16.964844 208.242188 19.492188 L 208.242188 19.695312 C 208.175781 22.257812 207.675781 24.1875 206.78125 25.515625 C 205.949219 26.648438 204.683594 27.347656 203.054688 27.546875 Z M 208.875 37.53125 "/>
<path style=" stroke:none;fill-rule:nonzero;fill:url(#linear0);" d="M 19.085938 49.234375 C 19.445312 49.402344 19.816406 49.550781 20.195312 49.671875 L 20.359375 49.726562 C 20.71875 49.835938 21.085938 49.921875 21.460938 49.984375 L 21.628906 49.984375 C 22.402344 50.105469 23.191406 50.105469 23.964844 49.984375 L 24.144531 49.984375 C 24.511719 49.925781 24.875 49.84375 25.230469 49.734375 L 25.433594 49.671875 C 25.792969 49.558594 26.148438 49.417969 26.492188 49.261719 L 26.644531 49.1875 C 26.992188 49.019531 27.328125 48.832031 27.65625 48.625 L 27.734375 48.578125 C 28.078125 48.359375 28.410156 48.117188 28.730469 47.863281 L 28.917969 47.710938 C 29.226562 47.453125 29.527344 47.175781 29.8125 46.878906 L 30.007812 46.679688 C 30.304688 46.375 30.601562 46.054688 30.90625 45.714844 L 31.03125 45.554688 C 31.300781 45.222656 31.558594 44.882812 31.808594 44.523438 L 31.898438 44.398438 C 29.011719 44.234375 26.160156 43.695312 23.410156 42.804688 C 23.03125 42.683594 22.625 42.683594 22.246094 42.804688 C 19.496094 43.703125 16.640625 44.246094 13.75 44.414062 C 15.082031 46.457031 16.921875 48.117188 19.085938 49.234375 Z M 19.085938 49.234375 "/>
<path style=" stroke:none;fill-rule:nonzero;fill:url(#linear1);" d="M 0.015625 34.007812 C 0.0507812 34.386719 0.105469 34.765625 0.1875 35.136719 L 0.230469 35.34375 C 0.316406 35.703125 0.421875 36.0625 0.554688 36.410156 L 0.625 36.578125 C 0.90625 37.304688 1.300781 37.984375 1.789062 38.59375 L 1.90625 38.738281 C 2.136719 39.023438 2.390625 39.292969 2.65625 39.542969 L 2.820312 39.695312 C 3.101562 39.945312 3.402344 40.179688 3.714844 40.394531 L 3.855469 40.492188 C 4.164062 40.699219 4.480469 40.890625 4.804688 41.066406 L 4.921875 41.128906 C 5.273438 41.308594 5.640625 41.46875 6.007812 41.621094 L 6.257812 41.71875 C 6.625 41.855469 7.007812 41.980469 7.402344 42.085938 L 7.699219 42.160156 C 8.101562 42.265625 8.511719 42.355469 8.941406 42.425781 L 9.15625 42.425781 C 9.550781 42.492188 9.953125 42.542969 10.367188 42.578125 L 10.5625 42.578125 C 10.242188 41.953125 9.941406 41.296875 9.667969 40.617188 C 9.503906 40.265625 9.582031 39.847656 9.867188 39.582031 C 10.148438 39.316406 10.574219 39.265625 10.914062 39.453125 C 11.097656 39.546875 11.242188 39.703125 11.324219 39.894531 C 11.5625 40.460938 11.816406 41.007812 12.085938 41.53125 C 12.441406 42.226562 13.175781 42.644531 13.957031 42.589844 C 15.53125 42.480469 17.09375 42.25 18.628906 41.898438 C 18.824219 41.847656 18.964844 41.683594 18.984375 41.484375 C 19.007812 41.285156 18.90625 41.09375 18.730469 41.003906 C 17.402344 40.402344 16.085938 39.742188 14.796875 38.988281 C 9.484375 36.054688 4.929688 31.921875 1.492188 26.914062 L 1.441406 27.03125 C 1.242188 27.460938 1.0625 27.882812 0.910156 28.304688 L 0.910156 28.394531 C 0.75 28.824219 0.617188 29.289062 0.5 29.683594 L 0.4375 29.898438 C 0.328125 30.308594 0.242188 30.71875 0.175781 31.125 L 0.175781 31.339844 C 0.113281 31.746094 0.0742188 32.15625 0.0507812 32.566406 L 0.0507812 32.65625 C 0.03125 33.042969 0.03125 33.433594 0.0507812 33.820312 C 0.0078125 33.882812 0.0078125 33.929688 0.015625 34.007812 Z M 0.015625 34.007812 "/>
<path style=" stroke:none;fill-rule:nonzero;fill:url(#linear2);" d="M 22.945312 9.390625 L 22.820312 9.390625 C 20.335938 10.261719 17.9375 11.367188 15.65625 12.683594 C 10.492188 15.542969 6.085938 19.597656 2.808594 24.507812 C 2.601562 24.839844 2.601562 25.265625 2.808594 25.597656 C 4.03125 27.546875 5.472656 29.347656 7.097656 30.972656 C 6.84375 29.007812 6.71875 27.03125 6.722656 25.054688 L 6.722656 23.394531 C 6.730469 23.1875 6.8125 22.988281 6.953125 22.832031 C 7.210938 22.566406 7.601562 22.484375 7.941406 22.625 C 8.28125 22.765625 8.5 23.101562 8.496094 23.46875 L 8.496094 25.070312 C 8.492188 27.496094 8.699219 29.917969 9.113281 32.308594 C 9.183594 32.710938 9.398438 33.074219 9.710938 33.335938 C 11.578125 34.878906 13.574219 36.261719 15.675781 37.464844 C 20.570312 40.394531 26.066406 42.164062 31.746094 42.640625 C 32.519531 42.671875 33.238281 42.242188 33.582031 41.550781 C 34.300781 40.082031 34.898438 38.5625 35.371094 37 C 35.429688 36.816406 35.359375 36.617188 35.203125 36.507812 C 35.042969 36.402344 34.835938 36.40625 34.683594 36.523438 C 33.460938 37.417969 32.199219 38.25 30.894531 39.015625 C 30.492188 39.246094 30.082031 39.460938 29.667969 39.679688 C 29.464844 39.785156 29.230469 39.8125 29.007812 39.75 C 28.671875 39.636719 28.433594 39.335938 28.402344 38.984375 C 28.367188 38.632812 28.546875 38.292969 28.855469 38.121094 C 29.25 37.910156 29.640625 37.691406 30.027344 37.464844 C 32.148438 36.242188 34.15625 34.835938 36.035156 33.265625 C 36.3125 33.035156 36.5 32.71875 36.574219 32.371094 C 36.980469 29.953125 37.175781 27.503906 37.164062 25.054688 L 37.164062 23.109375 C 37.160156 22.773438 37.34375 22.464844 37.640625 22.308594 C 37.9375 22.152344 38.292969 22.175781 38.570312 22.367188 C 38.761719 22.527344 38.878906 22.761719 38.890625 23.011719 C 38.890625 23.671875 38.9375 24.335938 38.9375 25.007812 C 39.042969 31.078125 37.730469 37.089844 35.105469 42.5625 L 35.300781 42.5625 C 35.714844 42.519531 36.117188 42.46875 36.507812 42.410156 L 36.714844 42.410156 C 37.144531 42.335938 37.558594 42.238281 37.96875 42.132812 L 38.253906 42.058594 C 38.648438 41.953125 39.03125 41.828125 39.402344 41.683594 L 39.652344 41.585938 C 40.027344 41.433594 40.394531 41.273438 40.746094 41.09375 L 40.859375 41.03125 C 41.191406 40.851562 41.511719 40.660156 41.820312 40.449219 L 41.960938 40.359375 C 42.273438 40.140625 42.574219 39.90625 42.859375 39.652344 L 43.019531 39.5 C 43.285156 39.246094 43.539062 38.976562 43.769531 38.691406 L 43.886719 38.550781 C 44.375 37.941406 44.769531 37.261719 45.050781 36.535156 L 45.121094 36.363281 C 45.253906 36.015625 45.359375 35.660156 45.445312 35.296875 L 45.488281 35.09375 C 45.566406 34.734375 45.625 34.371094 45.660156 34.007812 L 45.660156 33.855469 C 45.679688 33.46875 45.679688 33.078125 45.660156 32.691406 L 45.660156 32.601562 C 45.648438 32.175781 45.617188 31.746094 45.5625 31.320312 L 45.5625 31.105469 C 45.496094 30.699219 45.410156 30.292969 45.300781 29.878906 L 45.222656 29.675781 C 45.105469 29.253906 44.96875 28.824219 44.808594 28.394531 L 44.808594 28.285156 C 44.65625 27.863281 44.476562 27.445312 44.28125 27.023438 L 44.226562 26.90625 C 43.628906 27.835938 42.980469 28.734375 42.285156 29.59375 C 42.097656 29.8125 41.796875 29.898438 41.523438 29.808594 C 41.25 29.714844 41.058594 29.46875 41.039062 29.179688 L 41.039062 28.582031 C 41.027344 28.410156 41.082031 28.238281 41.191406 28.105469 C 42.589844 26.277344 42.550781 23.726562 41.09375 21.945312 C 38.003906 18.179688 34.242188 15.027344 30 12.640625 C 28.871094 11.996094 27.746094 11.414062 26.617188 10.847656 C 27.367188 10.578125 28.199219 10.3125 29.113281 10.070312 C 29.710938 10.378906 30.308594 10.707031 30.90625 11.046875 C 32.605469 12.027344 34.242188 13.117188 35.800781 14.304688 C 35.25 12.226562 34.484375 10.207031 33.511719 8.289062 C 33.222656 7.714844 32.628906 7.363281 31.988281 7.390625 C 28.914062 7.585938 25.882812 8.207031 22.980469 9.246094 Z M 15.675781 17.394531 L 18.621094 18.40625 C 18.746094 18.453125 18.839844 18.558594 18.867188 18.6875 C 18.898438 18.816406 18.859375 18.949219 18.765625 19.042969 L 16.832031 20.976562 C 16.738281 21.070312 16.601562 21.109375 16.472656 21.082031 C 16.34375 21.050781 16.238281 20.960938 16.195312 20.835938 L 15.164062 17.886719 C 15.109375 17.742188 15.144531 17.578125 15.257812 17.472656 C 15.367188 17.363281 15.535156 17.335938 15.675781 17.394531 Z M 12.335938 25.410156 C 12.207031 25.347656 12.121094 25.210938 12.121094 25.066406 C 12.121094 24.921875 12.207031 24.785156 12.335938 24.722656 L 15.128906 23.351562 C 15.246094 23.292969 15.386719 23.300781 15.5 23.367188 C 15.613281 23.4375 15.683594 23.558594 15.683594 23.691406 L 15.683594 26.433594 C 15.683594 26.5625 15.613281 26.6875 15.5 26.753906 C 15.386719 26.824219 15.246094 26.832031 15.128906 26.773438 Z M 18.601562 31.734375 L 15.675781 32.738281 C 15.539062 32.78125 15.386719 32.742188 15.285156 32.640625 C 15.183594 32.539062 15.148438 32.390625 15.191406 32.253906 L 16.203125 29.308594 C 16.246094 29.183594 16.351562 29.089844 16.480469 29.058594 C 16.609375 29.03125 16.746094 29.070312 16.839844 29.164062 L 18.773438 31.097656 C 18.867188 31.195312 18.902344 31.332031 18.867188 31.464844 C 18.832031 31.59375 18.730469 31.695312 18.601562 31.734375 Z M 24.558594 32.78125 L 23.1875 35.574219 C 23.121094 35.707031 22.988281 35.789062 22.84375 35.789062 C 22.695312 35.789062 22.5625 35.707031 22.496094 35.574219 L 21.128906 32.78125 C 21.070312 32.664062 21.074219 32.523438 21.144531 32.410156 C 21.214844 32.296875 21.335938 32.226562 21.46875 32.226562 L 24.207031 32.226562 C 24.339844 32.226562 24.460938 32.296875 24.53125 32.410156 C 24.601562 32.523438 24.605469 32.664062 24.546875 32.78125 Z M 30.027344 32.78125 L 27.082031 31.769531 C 26.957031 31.726562 26.863281 31.621094 26.835938 31.492188 C 26.804688 31.363281 26.84375 31.226562 26.9375 31.132812 L 28.871094 29.199219 C 28.964844 29.105469 29.101562 29.066406 29.230469 29.09375 C 29.359375 29.125 29.464844 29.21875 29.507812 29.34375 L 30.511719 32.21875 C 30.585938 32.363281 30.554688 32.542969 30.441406 32.660156 C 30.324219 32.777344 30.148438 32.808594 30 32.738281 Z M 33.347656 24.765625 C 33.480469 24.832031 33.5625 24.964844 33.5625 25.109375 C 33.5625 25.257812 33.480469 25.390625 33.347656 25.457031 L 30.554688 26.824219 C 30.4375 26.882812 30.296875 26.878906 30.183594 26.808594 C 30.070312 26.738281 30.003906 26.617188 30 26.484375 L 30 23.699219 C 30.003906 23.566406 30.070312 23.445312 30.183594 23.378906 C 30.296875 23.308594 30.4375 23.300781 30.554688 23.359375 Z M 27.082031 18.441406 L 30 17.394531 C 30.136719 17.351562 30.289062 17.386719 30.390625 17.488281 C 30.492188 17.59375 30.527344 17.742188 30.484375 17.878906 L 29.472656 20.824219 C 29.429688 20.949219 29.324219 21.042969 29.195312 21.074219 C 29.066406 21.101562 28.929688 21.0625 28.835938 20.96875 L 26.902344 19.035156 C 26.8125 18.9375 26.78125 18.800781 26.816406 18.675781 C 26.851562 18.546875 26.949219 18.445312 27.074219 18.40625 Z M 28.210938 25.054688 C 28.210938 28.019531 25.804688 30.425781 22.839844 30.425781 C 19.871094 30.425781 17.464844 28.019531 17.464844 25.054688 C 17.464844 22.085938 19.871094 19.679688 22.839844 19.679688 C 25.804688 19.679688 28.210938 22.085938 28.210938 25.054688 Z M 23.179688 14.566406 L 24.546875 17.359375 C 24.605469 17.476562 24.601562 17.617188 24.53125 17.730469 C 24.460938 17.84375 24.339844 17.914062 24.207031 17.914062 L 21.46875 17.914062 C 21.335938 17.914062 21.214844 17.84375 21.144531 17.730469 C 21.074219 17.617188 21.070312 17.476562 21.128906 17.359375 L 22.496094 14.566406 C 22.566406 14.4375 22.695312 14.359375 22.839844 14.359375 C 22.980469 14.359375 23.113281 14.4375 23.179688 14.566406 Z M 23.179688 14.566406 "/>
<path style=" stroke:none;fill-rule:nonzero;fill:url(#linear3);" d="M 0.105469 18.785156 L 0.105469 19 C 0.171875 19.40625 0.257812 19.8125 0.367188 20.226562 L 0.429688 20.441406 C 0.542969 20.871094 0.679688 21.335938 0.839844 21.730469 L 0.839844 21.820312 C 1 22.242188 1.179688 22.660156 1.367188 23.089844 L 1.421875 23.207031 C 3.15625 20.609375 5.242188 18.261719 7.617188 16.230469 C 8.207031 13.203125 9.203125 10.269531 10.582031 7.507812 C 7.726562 7.621094 4.988281 8.667969 2.78125 10.480469 L 2.675781 10.578125 C 2.394531 10.84375 2.132812 11.125 1.886719 11.421875 L 1.789062 11.546875 C 1.300781 12.15625 0.90625 12.839844 0.625 13.570312 L 0.554688 13.742188 C 0.421875 14.089844 0.316406 14.445312 0.230469 14.808594 L 0.1875 15.011719 C 0.109375 15.371094 0.0507812 15.734375 0.015625 16.097656 L 0.015625 16.238281 C -0.00390625 16.628906 -0.00390625 17.015625 0.015625 17.40625 L 0.015625 17.492188 C 0.0234375 17.925781 0.0546875 18.355469 0.105469 18.785156 Z M 0.105469 18.785156 "/>
<path style=" stroke:none;fill-rule:nonzero;fill:url(#linear4);" d="M 14.78125 11.089844 C 16.070312 10.347656 17.375 9.675781 18.703125 9.085938 C 18.863281 8.980469 18.949219 8.792969 18.929688 8.601562 C 18.90625 8.414062 18.777344 8.25 18.59375 8.1875 C 17.847656 8.023438 17.109375 7.882812 16.382812 7.769531 C 16.082031 7.710938 15.832031 7.503906 15.71875 7.222656 C 15.605469 6.941406 15.644531 6.621094 15.820312 6.371094 C 16.015625 6.101562 16.339844 5.964844 16.667969 6.011719 C 18.589844 6.304688 20.480469 6.75 22.328125 7.347656 C 22.652344 7.449219 23.003906 7.449219 23.332031 7.347656 C 26.109375 6.4375 28.996094 5.890625 31.917969 5.726562 L 31.863281 5.652344 C 31.589844 5.261719 31.304688 4.886719 31.011719 4.535156 L 30.933594 4.425781 C 30.636719 4.078125 30.339844 3.746094 30.035156 3.433594 L 29.867188 3.261719 C 29.5625 2.964844 29.261719 2.683594 28.972656 2.421875 L 28.800781 2.285156 C 28.46875 2.003906 28.121094 1.742188 27.761719 1.5 L 27.699219 1.5 C 27.371094 1.269531 27.03125 1.0625 26.679688 0.871094 L 26.535156 0.800781 C 26.191406 0.640625 25.839844 0.503906 25.480469 0.386719 L 25.273438 0.324219 C 24.917969 0.21875 24.554688 0.136719 24.191406 0.0742188 L 24.011719 0.0742188 C 23.308594 -0.0234375 22.597656 -0.0234375 21.898438 0.0742188 L 21.648438 0.0742188 C 21.378906 0.0742188 21.117188 0.164062 20.851562 0.226562 L 20.707031 0.226562 C 20.402344 0.308594 20.105469 0.410156 19.8125 0.523438 L 19.597656 0.613281 C 19.351562 0.714844 19.109375 0.824219 18.863281 0.945312 L 18.675781 1.03125 C 18.382812 1.1875 18.082031 1.359375 17.78125 1.542969 L 17.644531 1.632812 C 17.402344 1.800781 17.15625 1.980469 16.910156 2.171875 L 16.742188 2.304688 C 16.167969 2.796875 15.628906 3.332031 15.136719 3.90625 L 15.011719 4.050781 C 14.46875 4.675781 13.964844 5.339844 13.507812 6.03125 L 13.445312 6.121094 C 11.828125 8.65625 10.621094 11.429688 9.863281 14.339844 C 11.433594 13.152344 13.074219 12.066406 14.78125 11.089844 Z M 14.78125 11.089844 "/>
<path style=" stroke:none;fill-rule:nonzero;fill:url(#linear5);" d="M 38.335938 16.453125 C 40.574219 18.433594 42.539062 20.695312 44.183594 23.191406 C 44.609375 22.28125 44.957031 21.335938 45.222656 20.367188 L 45.222656 20.234375 C 45.335938 19.796875 45.425781 19.367188 45.5 18.945312 L 45.5 18.792969 C 45.566406 18.367188 45.609375 17.941406 45.632812 17.511719 C 45.65625 17.105469 45.65625 16.699219 45.632812 16.292969 L 45.632812 16.175781 C 45.601562 15.796875 45.542969 15.414062 45.464844 15.039062 L 45.464844 14.84375 C 45.378906 14.480469 45.269531 14.125 45.140625 13.777344 L 45.070312 13.617188 C 44.785156 12.886719 44.394531 12.207031 43.90625 11.601562 L 43.796875 11.457031 C 43.5625 11.171875 43.308594 10.902344 43.035156 10.652344 L 42.875 10.5 C 42.589844 10.246094 42.292969 10.007812 41.980469 9.792969 L 41.835938 9.691406 C 41.523438 9.480469 41.203125 9.289062 40.871094 9.109375 L 40.746094 9.011719 C 40.394531 8.832031 40.027344 8.671875 39.644531 8.519531 L 39.402344 8.421875 C 39.03125 8.285156 38.648438 8.160156 38.246094 8.046875 L 37.960938 7.972656 C 37.546875 7.867188 37.136719 7.777344 36.707031 7.695312 L 36.5 7.695312 C 36.101562 7.628906 35.6875 7.578125 35.265625 7.535156 L 35.085938 7.535156 C 36.417969 10.195312 37.394531 13.019531 37.988281 15.9375 C 38.046875 16.140625 38.167969 16.320312 38.335938 16.453125 Z M 38.335938 16.453125 "/>
</g>
</svg>
